<svg width="70" height="70" viewBox="0 0 70 70" fill="none" xmlns="http://www.w3.org/2000/svg">
<path d="M6.79876 10.1223H6.79292C4.72209 10.1223 3.61521 12.565 4.98313 14.1225L23.3333 35L45.0173 10.4402C44.6658 10.2929 44.2867 10.2069 43.8973 10.2054L6.79876 10.1223Z" fill="url(#paint0_linear_267_215)"/>
<path d="M55.4983 21.8691L46.0775 11.1912C45.7829 10.8573 45.4183 10.6064 45.0173 10.4387L23.3333 35L5.04145 55.7302C3.65457 57.3023 4.76145 59.7683 6.84978 59.7873L22.5779 59.7771L55.4983 21.8691Z" fill="url(#paint1_linear_267_215)"/>
<path d="M64.4832 32.0571L55.4984 21.8706L22.5779 59.7916L44.1554 59.7771C44.8934 59.71 45.5846 59.3789 46.079 58.8175L64.4832 37.9516C65.9692 36.2687 65.9692 33.7414 64.4832 32.0571Z" fill="url(#paint2_linear_267_215)"/>
<path opacity="0.05" d="M23.3333 35L45.0173 10.4402C44.6658 10.2929 44.2867 10.2069 43.8973 10.2054L43.2804 10.204L22.365 33.899L23.3333 35Z" fill="black"/>
<path opacity="0.07" d="M22.8506 34.4516L23.3334 34.9999L45.0173 10.4401C44.765 10.3337 44.4952 10.2739 44.2211 10.2404L22.8506 34.4516Z" fill="black"/>
<defs>
<linearGradient id="paint0_linear_267_215" x1="14.9931" y1="1.92794" x2="36.0821" y2="24.7859" gradientUnits="userSpaceOnUse">
<stop stop-color="#196DE5"/>
<stop offset="1" stop-color="#1351C8"/>
</linearGradient>
<linearGradient id="paint1_linear_267_215" x1="25.06" y1="34.0783" x2="40.4542" y2="52.8106" gradientUnits="userSpaceOnUse">
<stop stop-color="#4D9FFF"/>
<stop offset="1" stop-color="#1667EB"/>
</linearGradient>
<linearGradient id="paint2_linear_267_215" x1="39.8475" y1="39.6798" x2="48.7623" y2="54.6116" gradientUnits="userSpaceOnUse">
<stop stop-color="#70BCFD"/>
<stop offset="1" stop-color="#4A9FF9"/>
</linearGradient>
</defs>
</svg>
