<svg width="70" height="70" viewBox="0 0 70 70" fill="none" xmlns="http://www.w3.org/2000/svg">
<path d="M25.7163 8.75H42.2027L25.0877 59.4606C24.7275 60.5296 23.7256 61.2485 22.5969 61.2485H9.76648C8.3169 61.2485 7.14148 60.0731 7.14148 58.6235C7.14148 58.3377 7.18815 58.0548 7.27856 57.7835L23.2254 10.5394C23.5856 9.47042 24.5875 8.75 25.7163 8.75Z" fill="url(#paint0_linear_267_147)"/>
<path d="M49.6738 42.7642H23.5302C22.8623 42.7627 22.3198 43.3052 22.3184 43.9731C22.3184 44.31 22.4569 44.6308 22.7034 44.8598L39.5034 60.5398C39.9919 60.9962 40.6365 61.25 41.3059 61.25H56.1094L49.6738 42.7642Z" fill="#0078D4"/>
<path d="M25.7162 8.75002C24.5744 8.74564 23.5637 9.48502 23.2196 10.5729L7.29895 57.7427C6.81041 59.1048 7.51916 60.6069 8.88124 61.0954C9.16708 61.1975 9.46895 61.25 9.77374 61.25H22.9367C23.9342 61.0721 24.7596 60.3706 25.0965 59.414L28.2712 50.0573L39.6112 60.6346C40.0867 61.0283 40.6831 61.2456 41.3 61.25H56.0496L49.5804 42.7642L30.7227 42.7686L42.2625 8.75002H25.7162Z" fill="url(#paint1_linear_267_147)"/>
<path d="M46.7746 10.5365C46.4144 9.46896 45.414 8.75 44.2867 8.75H25.9117C27.0375 8.75 28.0394 9.46896 28.3981 10.535L44.345 57.7835C44.8088 59.1573 44.0709 60.6463 42.6971 61.11C42.4273 61.2033 42.1444 61.25 41.8586 61.25H60.2336C61.6831 61.25 62.8586 60.0746 62.8586 58.6235C62.8586 58.3377 62.8119 58.0548 62.72 57.785L46.7746 10.5365Z" fill="url(#paint2_linear_267_147)"/>
<defs>
<linearGradient id="paint0_linear_267_147" x1="31.7256" y1="12.6412" x2="14.6039" y2="63.2226" gradientUnits="userSpaceOnUse">
<stop stop-color="#114A8B"/>
<stop offset="1" stop-color="#0669BC"/>
</linearGradient>
<linearGradient id="paint1_linear_267_147" x1="37.0736" y1="36.2115" x2="33.1133" y2="37.5514" gradientUnits="userSpaceOnUse">
<stop stop-opacity="0.3"/>
<stop offset="0.071" stop-opacity="0.2"/>
<stop offset="0.321" stop-opacity="0.1"/>
<stop offset="0.623" stop-opacity="0.05"/>
<stop offset="1" stop-opacity="0"/>
</linearGradient>
<linearGradient id="paint2_linear_267_147" x1="35.0182" y1="11.1191" x2="53.8125" y2="61.1923" gradientUnits="userSpaceOnUse">
<stop stop-color="#3CCBF4"/>
<stop offset="1" stop-color="#2892DF"/>
</linearGradient>
</defs>
</svg>
