<svg width="60" height="68" viewBox="0 0 60 68" fill="none" xmlns="http://www.w3.org/2000/svg">
<g clip-path="url(#clip0_267_200)">
<path d="M59.899 19.7935C59.8985 18.6615 59.6564 17.6612 59.1668 16.8027C58.6859 15.9584 57.9656 15.2509 56.9995 14.6914C49.0249 10.0932 41.0426 5.50907 33.0705 0.906182C30.9213 -0.334599 28.8375 -0.289365 26.7042 0.969229C23.5301 2.84118 7.63828 11.9459 2.90273 14.6888C0.9525 15.8178 0.00351563 17.5456 0.00304688 19.7914C0 29.0387 0.00304688 38.2857 0 47.5332C0 48.6404 0.232266 49.6213 0.700312 50.4669C1.18148 51.3366 1.9118 52.0637 2.90016 52.6358C7.63594 55.3787 23.5298 64.4827 26.7033 66.3552C28.8375 67.6145 30.9213 67.6595 33.0713 66.4182C41.0435 61.8151 49.0263 57.2312 57.0021 52.633C57.9905 52.0611 58.7208 51.3336 59.202 50.4645C59.6693 49.6189 59.902 48.6381 59.902 47.5306C59.902 47.5306 59.902 29.041 59.899 19.7935Z" fill="#A179DC"/>
<path d="M30.0427 33.5721L0.700317 50.4668C1.18149 51.3366 1.9118 52.0636 2.90016 52.6357C7.63594 55.3786 23.5298 64.4827 26.7033 66.3551C28.8375 67.6144 30.9213 67.6594 33.0713 66.4182C41.0435 61.815 49.0263 57.2311 57.0021 52.6329C57.9905 52.061 58.7208 51.3335 59.202 50.4645L30.0427 33.5721Z" fill="#280068"/>
<path d="M59.899 19.7935C59.8985 18.6614 59.6564 17.6611 59.1668 16.8026L30.0427 33.5721L59.202 50.4645C59.6693 49.6189 59.9016 48.638 59.902 47.5306C59.902 47.5306 59.902 29.041 59.899 19.7935Z" fill="#390091"/>
<path d="M47.3185 27.2563V30.4142H50.4764V27.2563H52.0554V30.4142H55.2132V31.9932H52.0554V35.1511H55.2132V36.73H52.0554V39.8879H50.4764V36.73H47.3185V39.8879H45.7396V36.73H42.5817V35.1511H45.7396V31.9932H42.5817V30.4142H45.7396V27.2563H47.3185ZM50.4764 31.9932H47.3185V35.1511H50.4764V31.9932Z" fill="white"/>
<path d="M30.1071 11.3967C38.3439 11.3967 45.5353 15.8701 49.3872 22.5192L49.3496 22.4552L39.6585 28.0353C37.7491 24.8024 34.2488 22.6208 30.2335 22.5758L30.1071 22.5751C23.9839 22.5751 19.0197 27.539 19.0197 33.6622C19.0197 35.6646 19.5536 37.5416 20.482 39.1629C22.3931 42.4993 25.9858 44.7496 30.1071 44.7496C34.2538 44.7496 37.867 42.4707 39.7684 39.0986L39.7222 39.1795L49.3987 44.7853C45.5891 51.3782 38.4962 55.8377 30.3551 55.9266L30.1071 55.928C21.8443 55.928 14.6324 51.4271 10.7902 44.7428C8.91452 41.4796 7.84131 37.6964 7.84131 33.6622C7.84131 21.3655 17.8098 11.3967 30.1071 11.3967Z" fill="white"/>
</g>
<defs>
<clipPath id="clip0_267_200">
<rect width="60" height="67.5" fill="white"/>
</clipPath>
</defs>
</svg>
