<svg width="70" height="70" viewBox="0 0 70 70" fill="none" xmlns="http://www.w3.org/2000/svg">
<path d="M14.5833 17.5L18.9583 53.9583L7.26395 42.264C5.52999 40.53 5.06478 37.8948 6.10311 35.6723L14.5833 17.5Z" fill="#1565C0"/>
<path d="M39.8402 9.21517C38.6079 7.98288 36.9381 7.29163 35.1969 7.29163C34.1104 7.29163 33.04 7.56142 32.0833 8.07621L14.5833 17.5V47.1668C14.5833 48.7141 15.1973 50.1973 16.2925 51.291L18.9583 53.9583H51.0416V46.6666L61.25 30.625L39.8402 9.21517Z" fill="#42A5F5"/>
<path d="M14.5833 17.5H45.7085C47.2558 17.5 48.7389 18.114 49.8327 19.2092L61.25 30.625V53.9583H51.0416L14.5833 17.5Z" fill="#1565C0"/>
<path d="M51.0416 53.9584H18.9583L27.7083 62.7084H51.0416V53.9584Z" fill="#85CBF8"/>
</svg>
