<svg width="70" height="70" viewBox="0 0 70 70" fill="none" xmlns="http://www.w3.org/2000/svg">
<path d="M32.0833 8.75V23.7948C31.0712 23.3835 28.8871 23.3333 27.8109 23.3333C19.7142 23.3333 12.2192 27.1425 12.2192 37.9167C12.2192 50.8083 22.3708 52.5 29.1667 52.5C31.85 52.5 37.9167 52.235 40.8333 51.3892V8.75H32.0833ZM46.6667 8.75V17.5H55.4167V8.75H46.6667ZM46.6667 23.3333V48.7118C46.6667 53.1334 43.9775 57.7359 37.9167 60.3784L46.2565 64.1553C54.7323 61.2386 55.4167 51.6284 55.4167 48.7118V23.3333H46.6667ZM29.0812 30.7731C30.0145 30.7731 31.0625 30.9442 32.0833 31.1776V44.895C31.0625 45.1284 30.0145 45.3052 29.0812 45.3052C25.2604 45.3052 21.556 44.1 21.556 37.9167C21.556 31.7334 25.2604 30.7731 29.0812 30.7731Z" fill="#0A9148"/>
</svg>
