<svg width="70" height="70" viewBox="0 0 70 70" fill="none" xmlns="http://www.w3.org/2000/svg">
<path d="M42.2917 8.75H22.96C21.5556 8.75 20.4167 9.88896 20.4167 11.2933V21.8794H42.2917V8.75Z" fill="#169154"/>
<path d="M20.4167 48.2037V58.7067C20.4167 60.111 21.5556 61.25 22.9585 61.25H42.2917V48.2037H20.4167Z" fill="#18482A"/>
<path d="M20.4167 21.8794H42.2917V35.0073H20.4167V21.8794Z" fill="#0C8045"/>
<path d="M20.4167 35.0073H42.2917V48.2052H20.4167V35.0073Z" fill="#17472A"/>
<path d="M61.6233 8.75H42.2917V21.8794H64.1667V11.2933C64.1667 9.88896 63.0277 8.75 61.6233 8.75Z" fill="#29C27F"/>
<path d="M42.2917 48.2037V61.25H61.6248C63.0277 61.25 64.1667 60.111 64.1667 58.7081V48.2052L42.2917 48.2037Z" fill="#27663F"/>
<path d="M42.2917 21.8794H64.1667V35.0073H42.2917V21.8794Z" fill="#19AC65"/>
<path d="M42.2917 35.0073H64.1667V48.2052H42.2917V35.0073Z" fill="#129652"/>
<path d="M32.5486 49.5833H8.2848C6.93147 49.5833 5.83334 48.4852 5.83334 47.1318V22.8681C5.83334 21.5148 6.93147 20.4166 8.2848 20.4166H32.5486C33.9019 20.4166 35 21.5148 35 22.8681V47.1318C35 48.4852 33.9019 49.5833 32.5486 49.5833Z" fill="#0C7238"/>
<path d="M14.3019 27.7084H17.7815L20.6048 33.183L23.5885 27.7084H26.8392L22.3606 35L26.9413 42.2917H23.5127L20.4356 36.5605L17.3717 42.2917H13.8921L18.5485 34.9738L14.3019 27.7084Z" fill="white"/>
</svg>
