<svg width="70" height="70" viewBox="0 0 70 70" fill="none" xmlns="http://www.w3.org/2000/svg">
<path d="M11.6667 53.9583L33.8829 12.3024C34.3511 11.4245 35.6169 11.4406 36.0617 12.3316L43.75 27.7083L11.6667 53.9583Z" fill="#FF8F00"/>
<path d="M11.6667 53.9467L19.7546 4.07311C19.9661 2.76791 21.719 2.48499 22.3315 3.65749L37.9167 33.53L11.6667 53.9467Z" fill="#FFA000"/>
<path d="M11.6783 53.9379L11.97 53.709L37.5331 32.795L30.3231 18.9758L11.6783 53.9379Z" fill="#FF6F00"/>
<path d="M11.6667 53.9583L50.5546 16.4602C51.3698 15.6741 52.7304 16.1379 52.8967 17.2579L58.3334 53.9583L36.4584 66.7085C35.5702 67.2072 34.4867 67.2072 33.5986 66.7085L11.6667 53.9583Z" fill="#FFC400"/>
</svg>
