<svg width="70" height="70" viewBox="0 0 70 70" fill="none" xmlns="http://www.w3.org/2000/svg">
<path d="M35 10.9375C48.2891 10.9375 59.0625 21.7109 59.0625 35C59.0625 45.6838 52.0964 54.7367 42.4605 57.8769C42.4627 57.8681 42.467 57.8539 42.467 57.8539C42.467 57.8539 40.8428 57.0927 40.8778 55.7342C40.9161 54.2391 40.8778 50.7511 40.8778 49.4703C40.8778 47.2719 39.4866 45.7144 39.4866 45.7144C39.4866 45.7144 50.3989 45.8369 50.3989 34.1939C50.3989 29.7019 48.0506 27.3634 48.0506 27.3634C48.0506 27.3634 49.2844 22.5673 47.6241 20.533C45.7636 20.3317 42.4298 22.3114 41.0069 23.2367C41.0069 23.2367 38.7516 22.3114 35 22.3114C31.2484 22.3114 28.9931 23.2367 28.9931 23.2367C27.5702 22.3114 24.2375 20.3317 22.3759 20.533C20.7156 22.5673 21.9494 27.3634 21.9494 27.3634C21.9494 27.3634 19.6011 29.7008 19.6011 34.1939C19.6011 45.8369 30.5134 45.7144 30.5134 45.7144C30.5134 45.7144 29.4142 46.9569 29.1736 48.7834C28.4123 49.0416 27.2913 49.3609 26.3856 49.3609C24.0177 49.3609 22.2163 47.0586 21.5556 45.9944C20.9048 44.9444 19.5705 44.0628 18.3258 44.0628C17.5066 44.0628 17.1063 44.473 17.1063 44.9411C17.1063 45.4092 18.2547 45.7363 19.0127 46.6047C20.6106 48.4356 20.5822 52.5525 26.2762 52.5525C26.8942 52.5525 28.1564 52.4005 29.1069 52.2725C29.1014 53.5686 29.0992 54.9369 29.12 55.7364C29.1539 57.0948 27.5308 57.8561 27.5308 57.8561C27.5308 57.8561 27.5352 57.8692 27.5373 57.8791C17.9036 54.7367 10.9375 45.6838 10.9375 35C10.9375 21.7109 21.7109 10.9375 35 10.9375Z" fill="black"/>
</svg>
