<svg width="70" height="70" viewBox="0 0 70 70" fill="none" xmlns="http://www.w3.org/2000/svg">
<path d="M34.4896 36.3096C33.0342 33.9632 31.9783 32.0177 30.5156 28.3544C28.0423 22.1667 45.5583 16.5754 38.4562 5.83191C41.5348 13.2534 27.4064 17.8413 26.0939 24.0217C24.8937 29.7063 34.4823 36.3096 34.4896 36.3096Z" fill="#D43A02"/>
<path d="M34.8221 25.1855C34.5421 28.8546 38.0727 30.8102 38.1748 33.4907C38.2565 35.6723 36.0646 37.4909 36.0646 37.4909C36.0646 37.4909 40.0429 36.7092 41.284 33.3813C42.6621 29.6859 38.6094 27.1557 39.0265 24.1967C39.4158 21.3704 47.8217 16.1132 47.8217 16.1132C47.8217 16.1132 35.4535 16.9327 34.8221 25.1855Z" fill="#D43A02"/>
<path d="M46.7892 36.5386C49.3471 35.964 51.504 37.593 51.504 39.4698C51.504 43.7005 45.64 47.6992 45.64 47.6992C45.64 47.6992 54.7181 46.6171 54.7181 39.6711C54.7181 35.0773 50.26 33.9296 46.7892 36.5386ZM42.4798 39.9511C42.4798 39.9511 45.3104 37.9342 46.0644 37.1773C39.1183 38.6517 23.259 38.8501 23.259 37.5696C23.259 36.3898 28.3733 35.1809 28.3733 35.1809C28.3733 35.1809 17.0377 35.0176 17.0377 38.3615C17.0377 41.8469 31.8763 42.0963 42.4798 39.9511Z" fill="url(#paint0_linear_267_267)"/>
<path d="M40.7385 43.1244C34.1629 45.3104 22.0515 44.6119 25.639 41.6763C23.8919 41.6763 21.3019 43.0806 21.3019 44.4311C21.3019 47.1392 34.4006 49.2304 44.0956 45.2652L40.7385 43.1244Z" fill="url(#paint1_linear_267_267)"/>
<path d="M27.2504 47.7444C24.8646 47.7444 23.3202 49.2815 23.3202 50.4015C23.3202 53.8883 37.5535 54.2398 43.1929 50.7004L39.6083 48.3204C35.3952 50.1725 24.8121 50.4277 27.2504 47.7444Z" fill="url(#paint2_linear_267_267)"/>
<path d="M52.9098 53.4217C52.9098 52.0567 51.3713 51.4135 50.82 51.1058C54.0692 58.9414 18.2744 58.3333 18.2744 53.7075C18.2744 52.656 20.9096 51.6264 23.345 52.1135L21.2742 50.89C16.4208 50.1287 13.125 52.2623 13.125 53.9831C13.125 62.0083 52.9098 61.6219 52.9098 53.4217Z" fill="url(#paint3_linear_267_267)"/>
<path d="M56.875 56.2975C50.8287 62.2694 35.4973 64.4452 20.0798 60.7556C35.4973 67.3225 56.8021 63.6242 56.875 56.2975Z" fill="url(#paint4_linear_267_267)"/>
<defs>
<linearGradient id="paint0_linear_267_267" x1="33.0706" y1="30.8788" x2="44.8248" y2="63.1721" gradientUnits="userSpaceOnUse">
<stop stop-color="#5C65D6"/>
<stop offset="0.999" stop-color="#464EB0"/>
</linearGradient>
<linearGradient id="paint1_linear_267_267" x1="28.4346" y1="33.2063" x2="39.8067" y2="64.4525" gradientUnits="userSpaceOnUse">
<stop stop-color="#5C65D6"/>
<stop offset="0.999" stop-color="#464EB0"/>
</linearGradient>
<linearGradient id="paint2_linear_267_267" x1="27.2679" y1="34.2052" x2="38.7771" y2="65.8292" gradientUnits="userSpaceOnUse">
<stop stop-color="#5C65D6"/>
<stop offset="0.999" stop-color="#464EB0"/>
</linearGradient>
<linearGradient id="paint3_linear_267_267" x1="26.2938" y1="35.2887" x2="37.714" y2="66.6633" gradientUnits="userSpaceOnUse">
<stop stop-color="#5C65D6"/>
<stop offset="0.999" stop-color="#464EB0"/>
</linearGradient>
<linearGradient id="paint4_linear_267_267" x1="30.2239" y1="35.8487" x2="41.1658" y2="65.9123" gradientUnits="userSpaceOnUse">
<stop stop-color="#5C65D6"/>
<stop offset="0.999" stop-color="#464EB0"/>
</linearGradient>
</defs>
</svg>
