<svg width="70" height="70" viewBox="0 0 70 70" fill="none" xmlns="http://www.w3.org/2000/svg">
<path d="M61.25 25.2292C61.25 55.125 35 64.1667 35 64.1667C35 64.1667 8.75 55.125 8.75 25.2292C8.75 21.5834 9.04167 18.5209 9.33333 16.0417C9.77083 12.3959 12.25 9.47921 15.75 8.60421C20.2708 7.29171 27.4167 5.83337 35 5.83337C42.5833 5.83337 49.7292 7.29171 54.3958 8.60421C57.8958 9.47921 60.375 12.5417 60.8125 16.0417C60.9583 18.5209 61.25 21.7292 61.25 25.2292Z" fill="#5D4037"/>
<path d="M35 10.2084C42.1458 10.2084 48.8542 11.6667 53.2292 12.8334C54.9792 13.2709 56.1458 14.7292 56.4375 16.625C56.7292 19.3959 56.875 22.3125 56.875 25.2292C56.875 47.9792 40.1042 57.1667 35 59.3542C29.8958 57.0209 13.125 47.8334 13.125 25.2292C13.125 22.3125 13.2708 19.3959 13.5625 16.625C13.7083 14.7292 15.0208 13.2709 16.7708 12.8334C21.1458 11.6667 27.8542 10.2084 35 10.2084ZM35 5.83337C27.4167 5.83337 20.2708 7.29171 15.6042 8.60421C12.25 9.47921 9.625 12.5417 9.33333 16.0417C9.04167 18.5209 8.75 21.7292 8.75 25.2292C8.75 55.125 35 64.1667 35 64.1667C35 64.1667 61.25 55.125 61.25 25.2292C61.25 21.5834 60.9583 18.5209 60.6667 16.0417C60.2292 12.3959 57.75 9.47921 54.25 8.60421C49.7292 7.29171 42.5833 5.83337 35 5.83337Z" fill="#4CAF50"/>
<path d="M33.5417 40.8334H36.4584V52.5H33.5417V40.8334Z" fill="#DCEDC8"/>
<path d="M35 14.5834C35 14.5834 26.25 21.875 26.25 33.5417C26.25 41.125 31.0625 45.9375 33.5417 48.125L35 43.75L36.4583 48.125C38.9375 45.9375 43.75 41.125 43.75 33.5417C43.75 21.875 35 14.5834 35 14.5834Z" fill="#4CAF50"/>
<path d="M35 14.5834C35 14.5834 26.25 21.875 26.25 33.5417C26.25 41.125 31.0625 45.9375 33.5417 48.125L35 43.75V14.5834Z" fill="#81C784"/>
</svg>
