<svg width="70" height="70" viewBox="0 0 70 70" fill="none" xmlns="http://www.w3.org/2000/svg">
<path d="M30.9109 17.9024L20.9884 12.8945L10.0946 18.3297L20.2884 23.447L30.9109 17.9024Z" fill="#00ACC1"/>
<path d="M35.4623 20.1979L45.866 25.4522L35.0714 30.8714L24.8631 25.7454L35.4623 20.1979Z" fill="#00ACC1"/>
<path d="M49.3588 12.969L60.0483 18.3298L50.486 23.1292L40.0604 17.8705L49.3588 12.969Z" fill="#00ACC1"/>
<path d="M44.7562 10.6605L35.1327 5.83337L25.6141 10.5846L35.5308 15.5852L44.7562 10.6605Z" fill="#00ACC1"/>
<path d="M37.2342 52.099V65.2313L48.8907 59.4125L48.8804 46.2759L37.2342 52.099Z" fill="#00ACC1"/>
<path d="M48.8746 41.6894L48.8615 28.6913L37.2342 34.4707V47.4746L48.8746 41.6894Z" fill="#00ACC1"/>
<path d="M62.8702 39.2554V52.4372L52.9258 57.3985L52.9185 44.2764L62.8702 39.2554Z" fill="#00ACC1"/>
<path d="M62.8702 34.6441V21.7262L52.9069 26.6787L52.9156 39.7031L62.8702 34.6441Z" fill="#00ACC1"/>
<path d="M33.1188 34.4706L25.2671 30.5214V47.5825C25.2671 47.5825 15.6625 27.1483 14.7744 25.3137C14.6592 25.076 14.1896 24.8164 14.0686 24.7523C12.3375 23.8481 7.29169 21.2931 7.29169 21.2931V51.4456L14.2727 55.1877V39.4202C14.2727 39.4202 23.7738 57.6785 23.8715 57.8783C23.9692 58.0781 24.9186 60.0002 25.9394 60.6768C27.2942 61.5781 33.1129 65.0752 33.1129 65.0752L33.1188 34.4706Z" fill="#448AFF"/>
</svg>
