<svg width="70" height="70" viewBox="0 0 70 70" fill="none" xmlns="http://www.w3.org/2000/svg">
<path d="M32.8307 4.66663C26.4381 4.66663 20.9637 8.67123 18.7578 14.2962C14.1431 14.9126 10.0198 17.6042 7.64713 21.7155C4.45157 27.2508 5.17966 33.9915 8.94595 38.7142C7.17392 43.0175 7.44132 47.9352 9.81184 52.0442C13.0087 57.5819 19.2172 60.3216 25.1927 59.4179C28.0336 63.1054 32.4238 65.3333 37.1693 65.3333C43.5619 65.3333 49.0363 61.3287 51.2422 55.7037C55.8569 55.0873 59.9802 52.3957 62.3529 48.2845C65.5484 42.7491 64.8203 36.0084 61.054 31.2858C62.8261 26.9824 62.5587 22.0647 60.1881 17.9557C56.9912 12.418 50.7828 9.67831 44.8073 10.582C41.9664 6.89457 37.5762 4.66663 32.8307 4.66663ZM32.8307 9.33329C35.5284 9.33329 38.0581 10.3941 39.972 12.1953C39.8258 12.2734 39.6745 12.3351 39.5299 12.4186L29.1712 18.4023C28.0932 19.023 27.4259 20.1732 27.4212 21.4192L27.3574 35.3418L22.3763 32.4342V19.7877C22.3763 14.0244 27.0674 9.33329 32.8307 9.33329ZM47.8151 15.0892C51.164 15.3274 54.3448 17.1696 56.1458 20.289C57.4945 22.6245 57.8421 25.3465 57.2396 27.9043C57.0971 27.8156 56.9667 27.7153 56.8203 27.6308L46.457 21.6471C45.379 21.0264 44.051 21.0242 42.9707 21.6425L30.8848 28.5514L30.9121 22.7864L41.8633 16.4609C43.7349 15.3803 45.8057 14.9462 47.8151 15.0892ZM17.7324 19.291C17.727 19.4571 17.7096 19.6204 17.7096 19.7877V31.7506C17.7096 32.9966 18.3703 34.149 19.446 34.7767L31.4726 41.7903L26.4687 44.6477L15.513 38.3268C10.522 35.4451 8.80778 29.0352 11.6894 24.0442C13.0373 21.7101 15.218 20.0487 17.7324 19.291ZM43.5312 25.3522L54.487 31.6731C59.478 34.5548 61.1922 40.9647 58.3105 45.9557C56.9627 48.2898 54.782 49.9513 52.2676 50.7089C52.273 50.5429 52.2904 50.3796 52.2904 50.2122V38.2493C52.2904 37.0033 51.6297 35.8509 50.554 35.2233L38.5273 28.2096L43.5312 25.3522ZM35.0228 30.2102L39.1562 32.6211L39.1335 37.4153L34.9772 39.7897L30.8437 37.3743L30.8665 32.5846L35.0228 30.2102ZM42.6426 34.6582L47.6237 37.5657V50.2122C47.6237 55.9755 42.9326 60.6666 37.1693 60.6666C34.4716 60.6666 31.9418 59.6058 30.028 57.8046C30.1741 57.7265 30.3255 57.6648 30.47 57.5813L40.8288 51.5976C41.9068 50.977 42.5741 49.8267 42.5788 48.5807L42.6426 34.6582ZM39.1152 41.4485L39.0879 47.2135L28.1367 53.539C23.1457 56.4207 16.7358 54.7019 13.8542 49.7109C12.5055 47.3755 12.1579 44.6534 12.7604 42.0957C12.9029 42.1843 13.0333 42.2846 13.1797 42.3691L23.543 48.3528C24.621 48.9735 25.949 48.9757 27.0293 48.3574L39.1152 41.4485Z" fill="black"/>
</svg>
