<svg width="70" height="70" viewBox="0 0 70 70" fill="none" xmlns="http://www.w3.org/2000/svg">
<path d="M64.2877 43.4437C64.0208 42.2348 62.9242 40.8245 60.7119 40.8245C60.2598 40.8245 59.7654 40.8814 59.2025 40.9981C58.17 41.211 57.2906 41.3145 56.5163 41.3495C62.5435 31.0829 66.4563 16.8218 62.5815 11.8708C57.4758 5.34767 50.6027 4.3735 46.9613 4.3735L46.6185 4.37496C45.2638 4.39684 43.8579 4.56309 42.4433 4.86934L37.2181 5.99809C36.5065 5.90913 35.7817 5.84642 35.0263 5.83329H34.9825H34.9592L34.7375 5.83184C32.4144 5.83184 30.2954 6.32475 28.4069 7.25079L26.5825 6.53184C24.0742 5.54309 20.3 4.36621 16.5667 4.36621C16.3567 4.36621 16.1481 4.37059 15.9381 4.37788C12.2602 4.51059 9.10146 5.90621 6.80167 8.41309C3.93167 11.5427 2.62501 16.1204 2.92105 22.0208C2.93563 22.3256 6.50563 52.5 16.625 52.5H16.6615L16.7548 52.4985C18.0688 52.4664 19.3215 51.9385 20.4925 50.9279C21.3865 51.5987 22.5429 51.9954 23.6206 52.1529C24.3323 52.3206 25.6127 52.5583 27.1469 52.5583C29.0194 52.5583 30.7081 52.1747 32.1635 51.482C32.1621 52.7654 32.1548 54.39 32.1402 56.4666L32.1388 56.576L32.146 56.6854C32.2875 58.7547 32.6448 60.62 33.1829 62.0827C34.7156 66.252 37.3625 68.5489 40.6365 68.5489C40.7721 68.5489 40.9106 68.5445 41.0506 68.5358C43.7427 68.3695 46.4713 66.8573 48.3481 64.4933C50.3796 61.9339 50.8492 59.2331 51.03 57.1637L51.0417 57.0368V56.9085V50.96L51.1919 50.9745L51.8277 51.03L51.889 51.0358L51.9502 51.0387C52.1311 51.0475 52.3177 51.0504 52.5058 51.0504C54.7035 51.0504 57.4088 50.4802 59.2375 49.63C60.986 48.8191 64.9819 46.5908 64.2877 43.4437Z" fill="white"/>
<path d="M48.125 49.5834C48.125 49.2844 48.1425 49.0351 48.1512 48.7594C48.1367 48.3934 48.125 48.1251 48.125 48.1251C48.125 48.1251 48.1425 48.1119 48.1717 48.093C48.3889 44.1949 49.4637 42.6928 50.6144 41.8367C50.4539 41.6136 50.2687 41.373 50.0952 41.144C49.6096 40.5067 49.0044 39.7163 48.3569 38.7028L48.2373 38.4724C48.1396 38.2332 47.9033 37.8205 47.6029 37.278C45.8777 34.1571 42.2873 27.6646 44.7446 23.5638C45.8208 21.7671 47.8392 20.7317 50.7544 20.4765C49.5629 17.0888 45.0989 8.91776 34.9781 8.75006C34.9752 8.75006 34.9723 8.75006 34.9694 8.75006C26.1596 8.60714 23.2648 16.6134 22.3227 21.3967C23.6206 20.8469 25.1023 20.513 26.4585 20.513C26.4789 20.513 26.5008 20.513 26.5212 20.513C29.8608 20.5378 32.1577 22.3198 32.8256 25.4042C33.3142 27.6676 33.5489 29.648 33.5431 31.4607C33.5285 35.4259 32.7294 37.5113 32.0235 39.3517L31.7989 39.9467C31.6181 40.4338 31.4271 40.8874 31.2462 41.3132C31.0625 41.7478 30.9006 42.1342 30.7825 42.4828C31.4883 42.6432 32.0425 42.8692 32.4231 43.0369L32.6433 43.1332C32.7119 43.1623 32.7804 43.1959 32.8431 43.2338C34.0798 43.9863 34.8498 45.1428 35.0146 46.4903C35.1035 47.2165 35.0889 52.1676 35.0583 56.4871C35.1852 58.3611 35.5031 59.9346 35.9231 61.0751C36.5196 62.6996 38.01 65.8015 40.8727 65.6236C42.8706 65.4996 44.7912 64.2834 46.0658 62.6792C47.4337 60.9569 47.9383 59.0523 48.1279 56.9071V49.5834H48.125Z" fill="#0277BD"/>
<path d="M22.0413 42.1706C19.689 39.7162 18.5427 36.4146 18.9729 33.3389C19.3886 30.3712 19.1538 27.4662 19.0269 25.9043C18.9846 25.3837 18.9569 24.9958 18.9584 24.7814C18.9584 24.7698 18.9613 24.7596 18.9627 24.7479C18.9627 24.7421 18.9598 24.7377 18.9598 24.7318C19.1363 20.3262 20.8352 13.3758 25.5121 9.24434C23.2342 8.34747 19.5242 7.16476 16.0417 7.29164C10.5846 7.48997 5.30253 11.2641 5.83336 21.875C6.03315 25.8562 10.5321 49.7335 16.6834 49.5833C17.5627 49.5614 18.4757 48.9971 19.4134 47.8683C20.8965 46.0848 22.3373 44.4675 23.3625 43.3416C22.9032 42.9931 22.4598 42.6081 22.0413 42.1706ZM53.9919 21.4827C54.0138 21.7073 53.9948 21.8998 53.9598 22.0777C54.005 23.4193 53.8606 24.7216 53.7134 25.9816C53.6054 26.9091 53.4946 27.8673 53.464 28.8283C53.4334 29.7689 53.5661 30.6979 53.7061 31.6808C54.0342 33.9821 54.3754 36.5793 52.5904 39.6098C52.9186 40.0414 53.2073 40.4425 53.4377 40.8304C60.1606 29.9293 62.8702 16.9706 60.2846 13.6675C56.3719 8.6683 50.9557 7.22164 46.6652 7.29164C45.3221 7.31351 44.1015 7.49434 43.0588 7.72039C50.4613 11.3079 53.7586 18.9962 53.9919 21.4827ZM59.7917 43.8535C55.9052 44.6556 54.0356 44.2283 53.1286 43.6698C52.9827 43.7748 52.8369 43.8637 52.7013 43.9468C52.1588 44.275 51.2998 44.7971 51.0898 48.0039C51.2109 48.0273 51.3173 48.0404 51.4486 48.0681L52.0829 48.125C54.0079 48.2125 56.5294 47.6729 58.0081 46.986C61.1946 45.5073 62.9315 43.206 59.7917 43.8535ZM32.1169 46.8402C32.0629 46.4056 31.8281 46.0541 31.3994 45.7727L31.2419 45.7041C30.7154 45.4723 30.119 45.2083 29.1667 45.2083H29.1609C28.9756 45.2229 28.7919 45.236 28.6067 45.236C28.5309 45.236 28.4565 45.2258 28.3807 45.2229C27.6894 45.7552 26.7065 46.1664 24.274 46.6666C19.9282 47.7735 22.4934 49.0802 24.1602 49.2829C25.7731 49.6868 29.6071 50.1783 32.1534 48.1031C32.1461 47.4498 32.1344 47.0006 32.1169 46.8402Z" fill="#0277BD"/>
<path d="M30.1598 26.9806C29.734 27.4211 29.0617 27.8061 28.3194 27.6865C27.1119 27.4911 26.1859 26.0342 26.2529 25.4873C26.3171 24.9419 27.3482 24.6575 28.5542 24.8529C28.9727 24.9215 29.3534 25.0396 29.6742 25.1854C29.2075 24.1821 28.3632 23.6031 27.0754 23.4617C24.7932 23.2079 22.3709 24.4009 21.8838 25.0615C21.894 25.2219 21.9129 25.4275 21.9319 25.6696C22.0675 27.3423 22.3184 30.4588 21.859 33.7444C21.5557 35.91 22.4321 38.3659 24.1442 40.1538C25.2482 41.3059 26.5373 42.035 27.809 42.2509C27.9709 41.5538 28.2596 40.8742 28.5571 40.1727C28.7219 39.7863 28.8969 39.375 29.0617 38.9302L29.2979 38.3075C29.944 36.6231 30.6104 34.8804 30.6236 31.449C30.6294 30.1292 30.4675 28.6227 30.1598 26.9806ZM50.8186 32.0936C50.6669 31.0304 50.5109 29.9294 50.5488 28.735C50.5823 27.6529 50.7019 26.6321 50.8171 25.6448C50.9075 24.8675 50.9775 24.1209 51.0184 23.3844C49.1386 23.5404 47.8902 24.0829 47.2982 25.0002C47.5431 24.9171 47.8202 24.8515 48.1265 24.8121C49.4273 24.6429 50.3767 25.0177 50.4861 25.7411C50.5663 26.2704 50.1171 26.7692 49.9202 26.9602C49.5163 27.3525 49.0073 27.6048 48.4896 27.6719C48.3963 27.6836 48.3015 27.6894 48.2096 27.6894C47.6948 27.6894 47.2034 27.5129 46.8257 27.2519C46.989 30.1292 49.1109 33.9777 50.155 35.8663C50.3782 36.2702 50.5502 36.5925 50.6932 36.8696C51.2663 35.2377 51.0548 33.7502 50.8186 32.0936Z" fill="#0277BD"/>
</svg>
