<svg width="70" height="60" viewBox="0 0 70 60" fill="none" xmlns="http://www.w3.org/2000/svg">
<path d="M55.4167 54.2477H37.9167C37.1117 54.2477 36.4583 53.6954 36.4583 53.0148V6.16454C36.4583 5.48398 37.1117 4.93164 37.9167 4.93164H55.4167C56.2217 4.93164 56.875 5.48398 56.875 6.16454V53.0148C56.875 53.6954 56.2217 54.2477 55.4167 54.2477Z" fill="#EDA503"/>
<path d="M43.75 54.2477H26.25C25.445 54.2477 24.7917 53.6953 24.7917 53.0148V18.4935C24.7917 17.813 25.445 17.2606 26.25 17.2606H43.75C44.555 17.2606 45.2083 17.813 45.2083 18.4935V53.0148C45.2083 53.6953 44.555 54.2477 43.75 54.2477Z" fill="#FFCA28"/>
<path d="M32.0833 54.2476H14.5833C13.7783 54.2476 13.125 53.6953 13.125 53.0147V30.8225C13.125 30.1419 13.7783 29.5896 14.5833 29.5896H32.0833C32.8883 29.5896 33.5417 30.1419 33.5417 30.8225V53.0147C33.5417 53.6953 32.8883 54.2476 32.0833 54.2476Z" fill="#FFE082"/>
</svg>
