<svg width="70" height="70" viewBox="0 0 70 70" fill="none" xmlns="http://www.w3.org/2000/svg">
<path d="M35.0685 7.29161C32.8008 7.2989 31.2287 7.49869 29.3285 7.82682C23.7168 8.8039 22.6946 10.8558 22.6946 14.6372V20.4166H35.8196V23.3333H22.1958H15.8521C12.0079 23.3333 8.64351 25.1445 7.57747 29.486C6.37289 34.4691 6.31893 37.5899 7.57747 42.7933C8.53268 46.6739 10.6371 49.5833 14.4827 49.5833H19.7793V42.1399C19.7793 37.8145 23.6964 33.5416 28.1852 33.5416H38.7377C42.4171 33.5416 46.0293 30.8262 46.0293 27.1585V14.6372C46.0293 11.0804 43.4641 8.42036 39.8781 7.8239C39.9671 7.81515 37.3173 7.28286 35.0685 7.29161ZM27.8002 13.1249C28.9975 13.1249 29.9877 14.1122 29.9877 15.3154C29.9877 16.5302 28.9975 17.4999 27.8002 17.4999C26.5796 17.4999 25.6127 16.5316 25.6127 15.3154C25.6127 14.1166 26.5796 13.1249 27.8002 13.1249Z" fill="#0277BD"/>
<path d="M33.6554 62.7083C35.9231 62.701 37.4952 62.5012 39.3954 62.1731C45.0071 61.196 46.0294 59.1441 46.0294 55.3627V49.5833H32.9044V46.6666H46.5296H52.8733C56.7175 46.6666 60.0819 44.8554 61.1479 40.5139C62.3525 35.5308 62.4065 32.41 61.1479 27.2066C60.1912 23.326 58.0869 20.4166 54.2412 20.4166H48.9446V27.86C48.9446 32.1854 45.0275 36.4583 40.5387 36.4583H29.9862C26.3069 36.4583 22.6946 39.1737 22.6946 42.8414V55.3627C22.6946 58.9195 25.2598 61.5795 28.8458 62.176C28.7569 62.1847 31.4067 62.717 33.6554 62.7083ZM40.9252 56.875C39.7279 56.875 38.7377 55.8877 38.7377 54.6845C38.7377 53.4697 39.7279 52.5 40.9252 52.5C42.1458 52.5 43.1127 53.4683 43.1127 54.6845C43.1127 55.8833 42.1444 56.875 40.9252 56.875Z" fill="#FFC107"/>
</svg>
