<svg width="70" height="70" viewBox="0 0 70 70" fill="none" xmlns="http://www.w3.org/2000/svg">
<path d="M35 49.5833C16.1875 49.5833 1.45834 43.1666 1.45834 35C1.45834 26.8333 16.1875 20.4166 35 20.4166C53.8125 20.4166 68.5417 26.8333 68.5417 35C68.5417 43.1666 53.8125 49.5833 35 49.5833ZM35 23.3333C16.625 23.3333 4.37501 29.3125 4.37501 35C4.37501 40.6875 16.625 46.6666 35 46.6666C53.375 46.6666 65.625 40.6875 65.625 35C65.625 29.3125 53.375 23.3333 35 23.3333Z" fill="#80DEEA"/>
<path d="M22.0208 65.0417C20.5625 65.0417 19.3958 64.75 18.2292 64.0208C11.0833 59.9375 12.9792 44.0417 22.3125 27.7083C26.6875 20.125 32.0833 13.7083 37.3333 9.62499C43.0208 5.24998 48.125 3.93748 51.625 5.97915C55.2708 8.02082 56.5833 13.125 55.7083 20.2708C54.8333 26.9792 51.9167 34.8542 47.5417 42.4375C43.1667 50.0208 37.7708 56.4375 32.5208 60.5208C28.7292 63.4375 25.0833 65.0417 22.0208 65.0417ZM47.9792 7.87499C45.6458 7.87499 42.5833 9.18749 39.2292 11.8125C34.2708 15.75 29.1667 21.875 24.9375 29.1667C15.75 45.0625 14.875 58.7708 19.6875 61.5417C22.1667 63 26.25 61.6875 30.7708 58.1875C35.7292 54.25 40.8333 48.125 45.0625 40.8333C49.2917 33.5417 52.0625 26.1042 52.9375 19.8333C53.6667 14 52.7917 9.91665 50.3125 8.45832C49.5833 8.16665 48.8542 7.87499 47.9792 7.87499Z" fill="#80DEEA"/>
<path d="M48.125 65.0416C40.8333 65.0416 30.3333 56.1458 22.4583 42.2916C12.9792 25.9583 11.0833 10.0625 18.2292 5.97915C25.375 1.89581 38.2083 11.375 47.6875 27.7083C52.0625 35.2916 54.9792 43.1666 55.8542 49.875C56.875 57.0208 55.4167 61.9791 51.7708 64.1666C50.6042 64.75 49.4375 65.0416 48.125 65.0416ZM19.6875 8.45831C14.875 11.2291 15.75 24.9375 24.9375 40.8333C34.125 56.7291 45.5 64.3125 50.3125 61.5416C52.7917 60.0833 53.6667 56 52.9375 50.1666C52.0625 43.8958 49.2917 36.4583 45.0625 29.1666C35.875 13.2708 24.5 5.68748 19.6875 8.45831Z" fill="#80DEEA"/>
<path d="M35 40.8333C38.2217 40.8333 40.8333 38.2216 40.8333 35C40.8333 31.7783 38.2217 29.1666 35 29.1666C31.7783 29.1666 29.1667 31.7783 29.1667 35C29.1667 38.2216 31.7783 40.8333 35 40.8333Z" fill="#80DEEA"/>
</svg>
