<svg width="70" height="64" viewBox="0 0 70 64" fill="none" xmlns="http://www.w3.org/2000/svg">
<path d="M35 12.8053C26.8494 12.8053 21.369 16.0573 18.5558 22.5626C18.2642 23.236 19.164 23.7893 19.7458 23.2973C22.7135 20.788 26.0487 19.9573 29.75 20.8026C32.4129 21.4106 34.316 23.1773 36.4233 25.132C39.8533 28.3146 43.8244 32 52.5 32C60.6506 32 66.1325 28.7466 68.9442 22.2413C69.2358 21.568 68.336 21.0146 67.7542 21.5066C64.7864 24.016 61.4512 24.848 57.75 24.0026C55.0885 23.3946 53.1854 21.628 51.0781 19.6733C47.6467 16.4893 43.6742 12.8053 35 12.8053ZM17.5 32C9.34937 32 3.8675 35.2533 1.05583 41.7586C0.764164 42.432 1.66396 42.9853 2.24583 42.4933C5.21354 39.984 8.54875 39.152 12.25 39.9986C14.9115 40.608 16.8146 42.3733 18.9219 44.3266C22.3533 47.5106 26.3258 51.196 35 51.196C43.1506 51.196 48.6325 47.9426 51.4442 41.4373C51.7358 40.764 50.836 40.2106 50.2542 40.7026C47.2865 43.212 43.9512 44.044 40.25 43.1973C37.5871 42.5893 35.684 40.8226 33.5767 38.8693C30.1467 35.6853 26.1756 32 17.5 32Z" fill="url(#paint0_linear_267_240)"/>
<defs>
<linearGradient id="paint0_linear_267_240" x1="31.8806" y1="10.9826" x2="36.5781" y2="48.8483" gradientUnits="userSpaceOnUse">
<stop stop-color="#00C1E0"/>
<stop offset="1" stop-color="#009BB8"/>
</linearGradient>
</defs>
</svg>
