<svg width="70" height="70" viewBox="0 0 70 70" fill="none" xmlns="http://www.w3.org/2000/svg">
<path d="M61.25 8.75H8.75V61.25H61.25V8.75Z" fill="#1976D2"/>
<path d="M40.0896 32.0834H20.7477V36.8434H27.685V58.3334H33.1814V36.8434H40.0896V32.0834Z" fill="white"/>
<path d="M57.1579 38.0392C57.1579 38.0392 54.5519 36.3008 51.606 36.3008C48.6602 36.3008 47.6 37.7008 47.6 39.1971C47.6 43.0588 58.364 42.6723 58.364 50.4438C58.364 62.4152 41.9519 57.1054 41.9519 57.1054V51.3625C41.9519 51.3625 45.0902 53.7279 48.8542 53.7279C52.6181 53.7279 52.4752 51.2663 52.4752 50.9279C52.4752 47.3565 41.8075 47.3565 41.8075 39.4392C41.8075 28.6752 57.3504 32.9219 57.3504 32.9219L57.1579 38.0392Z" fill="white"/>
</svg>
