<svg width="70" height="70" viewBox="0 0 70 70" fill="none" xmlns="http://www.w3.org/2000/svg">
<path d="M8.75 16.0417C8.75 12.8334 11.375 10.2084 14.5833 10.2084H53.9583C57.1667 10.2084 59.7917 12.8334 59.7917 16.0417V55.4167C59.7917 58.625 57.1667 61.25 53.9583 61.25H14.5833C11.375 61.25 8.75 58.625 8.75 55.4167V16.0417Z" fill="url(#paint0_linear_267_207)"/>
<path opacity="0.05" d="M39.2292 58.3333C36.75 58.3333 34.5625 57.6042 32.9584 56C31.3542 54.3958 30.4792 52.3542 30.4792 49.875V49.5833C30.4792 47.9792 30.7709 46.375 31.3542 45.2083C31.9375 43.8958 32.9584 42.7292 34.2709 42C35.4375 41.2708 37.0417 40.8333 38.6459 40.8333C40.9792 40.8333 43.0209 41.5625 44.3334 43.1667C45.7917 44.625 46.375 46.6667 46.375 49.2917V52.5H44.7709L46.375 54.3958L45.6459 55.2708C44.9167 56.2917 44.0417 57.0208 42.7292 57.6042C42 58.0417 40.6875 58.3333 39.2292 58.3333ZM21.5834 58.3333C19.6875 58.3333 18.0834 58.0417 16.4792 57.3125C14.875 56.5833 13.7084 55.7083 12.8334 54.3958C11.9584 53.0833 11.6667 50.8958 11.6667 49.5833V48.125H16.1875C13.5625 46.6667 12.25 44.625 12.25 42C12.25 40.5417 12.6875 39.2292 13.5625 38.2083C14.4375 37.1875 15.4584 36.3125 16.9167 35.7292C18.2292 35.1458 19.8334 35 21.4375 35C23.0417 35 24.6459 35.2917 25.9584 35.875C27.4167 36.4583 28.4375 37.3333 29.3125 38.5C30.0417 39.5208 30.4792 40.6875 30.4792 42.1458V43.6042H23.9167C24.9375 43.8958 25.8125 44.3333 26.5417 44.7708C29.1667 46.2292 30.625 48.4167 30.625 51.1875C30.625 53.375 29.75 55.125 28 56.4375C26.3959 57.75 24.2084 58.3333 21.5834 58.3333ZM19.5417 49.5833C19.5417 50.6042 19.8334 51.3333 19.9792 51.4792C20.125 51.4792 20.4167 51.9167 21.7292 51.9167C22.1667 51.9167 22.6042 51.7708 22.75 51.625C22.75 51.625 22.8959 51.4792 22.8959 51.3333C22.8959 51.0417 22.75 50.8958 22.75 50.8958C22.6042 50.75 22.0209 50.4583 20.5625 49.875C20.125 49.7292 19.8334 49.5833 19.5417 49.5833ZM20.125 42C20.125 42 20.125 42.1458 20.4167 42.2917C20.7084 42.4375 21.2917 42.875 22.8959 43.3125V42.2917C22.8959 42.1458 22.8959 42.1458 22.8959 42C22.8959 42 22.75 41.8542 22.6042 41.7083C22.3125 41.5625 22.0209 41.4167 21.4375 41.4167C20.8542 41.4167 20.4167 41.5625 20.2709 41.7083C20.125 42 20.125 42 20.125 42Z" fill="black"/>
<path opacity="0.07" d="M39.2292 57.6042C36.8958 57.6042 35 56.875 33.5417 55.4167C32.0833 53.9584 31.3542 52.0625 31.3542 49.875V49.5834C31.3542 47.9792 31.6458 46.6667 32.2292 45.5C32.8125 44.3334 33.6875 43.3125 34.8542 42.5834C36.0208 41.8542 37.3333 41.5625 38.7917 41.5625C40.9792 41.5625 42.7292 42.2917 44.0417 43.6042C45.3542 44.9167 45.9375 46.8125 45.9375 49.2917V51.7709H43.6042L45.7917 54.3959L45.5 54.8334C44.9167 55.7084 44.0417 56.4375 42.875 56.875C41.7083 57.3125 40.5417 57.6042 39.2292 57.6042ZM37.625 51.7709C37.7708 51.9167 37.9167 52.0625 38.0625 52.2084C38.5 52.5 38.9375 52.6459 39.6667 52.6459C40.6875 52.6459 41.5625 52.3542 42.1458 51.625H37.625V51.7709ZM40.1042 47.3959C40.1042 47.1042 39.9583 46.9584 39.8125 46.8125C39.5208 46.5209 39.2292 46.5209 38.7917 46.5209C38.2083 46.5209 37.7708 46.6667 37.4792 47.5417H40.1042V47.3959ZM21.5833 57.6042C19.8333 57.6042 18.2292 57.3125 16.7708 56.7292C15.3125 56.1459 14.1458 55.2709 13.4167 54.1042C12.6875 52.9375 12.25 51.0417 12.25 49.5834V48.8542H18.6667V49.5834C18.6667 50.75 18.9583 51.7709 19.25 51.9167C19.6875 52.3542 20.4167 52.5 21.4375 52.5C22.0208 52.5 22.6042 52.3542 22.8958 52.0625C23.1875 51.9167 23.3333 51.625 23.3333 51.1875C23.3333 50.75 23.1875 50.3125 22.8958 50.1667C22.6042 49.875 21.875 49.5834 20.4167 49C19.1042 48.5625 18.0833 48.125 17.2083 47.6875C14.2917 46.2292 12.8333 44.3334 12.8333 41.8542C12.8333 40.5417 13.2708 39.5209 14 38.5C14.7292 37.625 15.75 36.75 17.0625 36.3125C18.375 35.875 19.8333 35.5834 21.4375 35.5834C23.0417 35.5834 24.3542 35.875 25.6667 36.4584C26.9792 37.0417 28 37.7709 28.7292 38.9375C29.4583 39.9584 29.75 40.8334 29.75 42.2917V43.0209H23.3333V42.2917C23.3333 41.7084 23.1875 41.7084 22.75 41.2709C22.3125 40.9792 21.875 40.8334 21.1458 40.8334C20.4167 40.8334 19.8333 40.9792 19.5417 41.2709C19.25 41.5625 19.1042 41.7084 19.1042 42.1459C19.1042 42.2917 19.1042 42.5834 19.6875 42.875C19.9792 43.1667 20.7083 43.6042 22.4583 44.0417C23.9167 44.4792 25.0833 45.0625 26.1042 45.5C28.5833 46.8125 29.75 48.8542 29.75 51.1875C29.75 53.2292 29.0208 54.6875 27.4167 55.8542C26.1042 57.0209 24.0625 57.6042 21.5833 57.6042Z" fill="black"/>
<path d="M24.2083 51.3333C24.2083 50.6041 23.9167 50.0208 23.4792 49.7291C23.0417 49.2916 22.0208 49 20.8542 48.5625C19.5417 48.125 18.5208 47.6875 17.7917 47.3958C15.1667 46.0833 13.8542 44.3333 13.8542 42.1458C13.8542 40.9791 14.1458 40.1041 14.875 39.2291C15.6042 38.3541 16.4792 37.7708 17.6458 37.3333C18.8125 36.8958 20.2708 36.6041 21.7292 36.6041C23.1875 36.6041 24.5 36.8958 25.6667 37.3333C26.8333 37.7708 27.7083 38.5 28.4375 39.5208C29.0208 40.3958 29.4583 41.2708 29.4583 42.4375H24.5C24.5 41.5625 24.2083 41.2708 23.7708 40.8333C23.3333 40.3958 22.6042 40.1041 21.7292 40.1041C20.8542 40.1041 20.125 40.25 19.6875 40.6875C19.25 41.125 18.9583 41.5625 18.9583 42.1458C18.9583 42.7291 19.25 43.1666 19.8333 43.4583C20.4167 43.8958 21.4375 44.3333 22.75 44.7708C24.2083 45.2083 25.375 45.6458 26.25 46.2291C28.4375 47.3958 29.6042 49.1458 29.6042 51.3333C29.6042 53.0833 28.875 54.3958 27.5625 55.4166C26.25 56.4375 24.3542 56.875 22.0208 56.875C20.4167 56.875 18.8125 56.5833 17.5 56C16.1875 55.4166 15.1667 54.6875 14.4375 53.6666C13.7083 52.6458 13.125 50.8958 13.125 49.5833H18.0833C18.0833 50.6041 18.375 52.0625 18.9583 52.5C19.5417 52.9375 20.4167 53.2291 21.7292 53.2291C22.6042 53.2291 23.1875 53.0833 23.625 52.6458C24.0625 52.3541 24.2083 51.9166 24.2083 51.3333ZM39.2292 56.875C37.0417 56.875 35.2917 56.2916 33.9792 54.9791C32.6667 53.6666 31.9375 52.0625 31.9375 50.0208V49.5833C31.9375 48.125 32.2292 46.8125 32.6667 45.7916C33.25 44.625 33.9792 43.8958 35 43.1666C36.0208 42.5833 37.1875 42.2916 38.6458 42.2916C40.6875 42.2916 42.1458 42.875 43.3125 44.1875C44.4792 45.3541 45.0625 47.1041 45.0625 49.2916V51.0416H36.3125C36.4583 51.7708 36.75 52.3541 37.3333 52.7916C37.9167 53.2291 38.5 53.5208 39.375 53.5208C40.6875 53.5208 41.8542 53.0833 42.5833 52.0625L44.625 54.3958C44.0417 55.125 43.3125 55.7083 42.2917 56.1458C41.5625 56.5833 40.3958 56.875 39.2292 56.875ZM38.7917 45.6458C37.4792 45.6458 36.75 46.375 36.4583 48.125H40.8333V47.8333C40.8333 47.1041 40.6875 46.5208 40.25 46.2291C39.8125 45.9375 39.5208 45.6458 38.7917 45.6458Z" fill="white"/>
<path opacity="0.05" d="M59.7917 16.0417C59.7917 13.4167 58.0417 11.2292 55.7084 10.5L43.1667 22.0208L36.4584 15.4583L30.0417 21.875L42.1459 35.7292L59.7917 20.2708V16.0417Z" fill="black"/>
<path opacity="0.07" d="M59.7917 16.0416C59.7917 13.7083 58.3333 11.6666 56.4375 10.7916L43.1667 23.0416L36.4583 16.4791L31.0625 21.875L42.1458 34.5625L59.6458 19.3958V16.0416H59.7917Z" fill="black"/>
<path d="M32.0833 21.875L36.4583 17.5L43.0208 24.0625L61.25 7.29163L64.1666 14.5833L42.2916 33.5416L32.0833 21.875Z" fill="#21A366"/>
<defs>
<linearGradient id="paint0_linear_267_207" x1="5.88438" y1="10.1296" x2="60.2467" y2="59.1544" gradientUnits="userSpaceOnUse">
<stop stop-color="#6E6E6E"/>
<stop offset="0.999" stop-color="#4D4D4D"/>
</linearGradient>
</defs>
</svg>
