<svg width="50" height="50" viewBox="0 0 50 50" fill="none" xmlns="http://www.w3.org/2000/svg">
<path d="M13.5416 41.6667C10.3819 41.6667 7.68227 40.573 5.44269 38.3855C3.2031 36.198 2.08331 33.5243 2.08331 30.3646C2.08331 27.6563 2.89929 25.2431 4.53123 23.125C6.16317 21.007 8.29859 19.6528 10.9375 19.0625C11.8055 15.8681 13.5416 13.2813 16.1458 11.3021C18.75 9.32296 21.7014 8.33337 25 8.33337C29.0625 8.33337 32.5087 9.7483 35.3385 12.5782C38.1684 15.408 39.5833 18.8542 39.5833 22.9167C41.9791 23.1945 43.967 24.2275 45.5469 26.0157C47.1267 27.8039 47.9166 29.8959 47.9166 32.2917C47.9166 34.8959 47.0052 37.1094 45.1823 38.9323C43.3594 40.7552 41.1458 41.6667 38.5416 41.6667H13.5416ZM13.5416 37.5H38.5416C40 37.5 41.2326 36.9966 42.2396 35.9896C43.2465 34.9827 43.75 33.75 43.75 32.2917C43.75 30.8334 43.2465 29.6007 42.2396 28.5938C41.2326 27.5868 40 27.0834 38.5416 27.0834H35.4166V22.9167C35.4166 20.0348 34.401 17.5782 32.3698 15.5469C30.3385 13.5157 27.8819 12.5 25 12.5C22.118 12.5 19.6614 13.5157 17.6302 15.5469C15.5989 17.5782 14.5833 20.0348 14.5833 22.9167H13.5416C11.5278 22.9167 9.80901 23.6285 8.3854 25.0521C6.96179 26.4757 6.24998 28.1945 6.24998 30.2084C6.24998 32.2223 6.96179 33.941 8.3854 35.3646C9.80901 36.7882 11.5278 37.5 13.5416 37.5Z" fill="#BFE1F9"/>
</svg>
