<svg width="50" height="50" viewBox="0 0 50 50" fill="none" xmlns="http://www.w3.org/2000/svg">
<path d="M16.6667 43.75V41.6667L20.8333 37.5H8.33332C7.18749 37.5 6.20659 37.092 5.39061 36.276C4.57464 35.4601 4.16666 34.4792 4.16666 33.3333V10.4167C4.16666 9.27083 4.57464 8.28993 5.39061 7.47396C6.20659 6.65799 7.18749 6.25 8.33332 6.25H41.6667C42.8125 6.25 43.7934 6.65799 44.6094 7.47396C45.4253 8.28993 45.8333 9.27083 45.8333 10.4167V33.3333C45.8333 34.4792 45.4253 35.4601 44.6094 36.276C43.7934 37.092 42.8125 37.5 41.6667 37.5H29.1667L33.3333 41.6667V43.75H16.6667ZM8.33332 27.0833H41.6667V10.4167H8.33332V27.0833Z" fill="#BFE1F9"/>
</svg>
