<svg width="50" height="50" viewBox="0 0 50 50" fill="none" xmlns="http://www.w3.org/2000/svg">
<path d="M14.5833 47.9167C13.4375 47.9167 12.4566 47.5087 11.6406 46.6928C10.8246 45.8768 10.4167 44.8959 10.4167 43.75V6.25004C10.4167 5.10421 10.8246 4.1233 11.6406 3.30733C12.4566 2.49136 13.4375 2.08337 14.5833 2.08337H35.4167C36.5625 2.08337 37.5434 2.49136 38.3594 3.30733C39.1753 4.1233 39.5833 5.10421 39.5833 6.25004V43.75C39.5833 44.8959 39.1753 45.8768 38.3594 46.6928C37.5434 47.5087 36.5625 47.9167 35.4167 47.9167H14.5833ZM14.5833 37.5V43.75H35.4167V37.5H14.5833ZM25 42.7084C25.5903 42.7084 26.0851 42.5087 26.4844 42.1094C26.8837 41.7101 27.0833 41.2153 27.0833 40.625C27.0833 40.0348 26.8837 39.54 26.4844 39.1407C26.0851 38.7414 25.5903 38.5417 25 38.5417C24.4097 38.5417 23.9149 38.7414 23.5156 39.1407C23.1163 39.54 22.9167 40.0348 22.9167 40.625C22.9167 41.2153 23.1163 41.7101 23.5156 42.1094C23.9149 42.5087 24.4097 42.7084 25 42.7084ZM14.5833 33.3334H35.4167V12.5H14.5833V33.3334ZM14.5833 8.33337H35.4167V6.25004H14.5833V8.33337Z" fill="#BFE1F9"/>
</svg>
