<svg width="50" height="50" viewBox="0 0 50 50" fill="none" xmlns="http://www.w3.org/2000/svg">
<path d="M8.33335 41.6667C7.18752 41.6667 6.20662 41.2587 5.39065 40.4427C4.57467 39.6268 4.16669 38.6459 4.16669 37.5V12.5C4.16669 11.3542 4.57467 10.3733 5.39065 9.55733C6.20662 8.74136 7.18752 8.33337 8.33335 8.33337H41.6667C42.8125 8.33337 43.7934 8.74136 44.6094 9.55733C45.4254 10.3733 45.8333 11.3542 45.8333 12.5V37.5C45.8333 38.6459 45.4254 39.6268 44.6094 40.4427C43.7934 41.2587 42.8125 41.6667 41.6667 41.6667H8.33335ZM8.33335 37.5H30.2084V30.2084H8.33335V37.5ZM34.375 37.5H41.6667V18.75H34.375V37.5ZM8.33335 26.0417H30.2084V18.75H8.33335V26.0417Z" fill="#BFE1F9"/>
</svg>
